<svg width="15" height="21" viewBox="0 0 15 21" fill="none" xmlns="http://www.w3.org/2000/svg">
<path d="M14.4795 12.265C14.3376 12.265 14.2429 12.3138 14.1481 12.412L7.94987 18.8335L7.94987 0.990336C7.94987 0.696271 7.76074 0.5 7.47655 0.5C7.19269 0.5 7.00323 0.69593 7.00323 0.990336L7.00323 18.8335L0.804622 12.412C0.709893 12.3138 0.567963 12.265 0.473234 12.265C0.378503 12.265 0.236577 12.3138 0.141847 12.412C-0.0472827 12.6079 -0.0472828 12.9023 0.141847 13.0982L7.14487 20.3531C7.334 20.549 7.61818 20.549 7.8073 20.3531L14.8582 13.0982C15.0473 12.9023 15.0473 12.6079 14.8582 12.412C14.7634 12.3138 14.6215 12.265 14.4795 12.265Z" fill="#8C7F75"/>
</svg>
