<svg width="591" height="94" viewBox="0 0 591 94" fill="none" xmlns="http://www.w3.org/2000/svg">
<path d="M60.2336 20.3171L65.5676 10.9686C61.7576 7.89512 57.3126 5.33386 52.487 3.41293C47.5339 1.62006 42.0729 0.595581 35.9769 0.595581C31.2778 0.595581 26.9598 1.2359 23.0223 2.38846C18.9583 3.54102 15.5293 5.20581 12.7352 7.51093C9.81423 9.81604 7.52823 12.6334 6.00422 15.963C4.3532 19.2926 3.5912 23.1345 3.5912 27.4886C3.5912 31.0744 4.09919 34.1478 5.3692 36.7091C6.51221 39.2703 8.29023 41.4474 10.5762 43.2403C12.8623 45.0331 15.7833 46.5699 19.3393 47.8505C22.7683 49.1311 26.8323 50.4117 31.4044 51.4362C35.4684 52.4607 39.1515 53.4852 42.4539 54.5097C45.7559 55.5342 48.4229 56.5587 50.7089 57.8393C52.868 59.12 54.519 60.6567 55.662 62.4496C56.805 64.2424 57.44 66.2914 57.44 68.8527C57.44 73.4629 55.662 76.9206 52.1059 79.2257C48.5499 81.5308 43.4699 82.6834 37.1203 82.6834C33.5642 82.6834 30.2622 82.4272 27.0872 81.6589C23.9122 80.8905 20.9912 79.9941 18.1971 78.8415C15.4031 77.689 12.9901 76.4083 10.8311 74.8716C8.67209 73.4629 6.89407 72.0542 5.62406 70.5175L0.163025 80.2502C5.24306 84.4762 10.8311 87.6778 17.0537 89.8549C23.2768 92.0319 29.881 93.0564 36.8661 93.0564C41.4381 93.0564 45.7561 92.6722 49.8206 91.6477C53.7576 90.6232 57.1866 89.0865 60.1077 87.0375C63.0287 84.9885 65.3147 82.2992 67.0927 79.0976C68.7437 75.8961 69.6327 72.0542 69.6327 67.7003C69.6327 63.6024 68.8707 60.1447 67.4737 57.3273C66.0767 54.5099 64.0447 52.2048 61.3777 50.1558C58.7106 48.2349 55.5356 46.5701 51.7256 45.2895C47.9156 44.0088 43.7245 42.7282 39.1527 41.7037C35.0887 40.8073 31.5327 39.9109 28.6116 39.0144C25.5636 38.2461 23.1506 37.2216 21.1186 36.069C19.0866 34.9164 17.6896 33.5078 16.8006 31.8429C15.7846 30.3062 15.4036 28.2572 15.4036 25.696C15.4036 21.0857 16.9276 17.5 20.2296 14.8107C23.5316 12.2494 28.6116 10.8407 35.7241 10.8407C38.3911 10.8407 40.9312 11.2249 43.4712 11.7372C46.0112 12.2494 48.2972 13.0178 50.4562 13.9143C52.4883 14.8107 54.3932 15.8352 56.1713 16.8597C57.8223 18.0122 59.2193 19.1648 60.2353 20.3173L60.2336 20.3171Z" fill="#F9F9F7"/>
<path d="M141.736 16.874L134.743 1.11641H123.935L136.523 28.7248L141.736 16.874ZM199.971 0.595721L169.455 79.2521L163.86 90.9725L164.75 93.0561H174.668L212.432 0.59552L199.971 0.595721ZM153.18 39.6636L169.582 1.11641H158.774L124.189 79.2521L93.5453 0.595721H81.2112L118.848 93.0564H128.766L146.822 50.7328L158.646 78.8619L164.495 67.272L153.18 39.6636Z" fill="#F9F9F7"/>
<path d="M268.76 13.228L263.72 27.0322L275.351 56.8538H252.348L248.859 65.9697H277.936L288.792 93.0564H301.199L268.76 13.228ZM263.72 0.59552H253.898L216.291 93.0564H228.181L258.81 14.1389L263.72 0.59552Z" fill="#F9F9F7"/>
<path d="M320.496 93.055H332.074V41.0851L320.496 25.8482V93.055ZM386.106 0.724848V72.6102L329.501 0.59552H320.496V7.62773L332.074 22.4733L387.907 93.0564H397.684V0.725083L386.106 0.724848Z" fill="#F9F9F7"/>
<path d="M440.159 0.724849H428.561V49.1696L440.159 36.5372V0.724849ZM463.099 41.356L499.829 0.59552H487.327L440.158 51.7741L428.56 64.2761V93.0564H440.158V64.7968L456.01 48.1282L489.259 93.0564H501.889L463.099 41.356Z" fill="#F9F9F7"/>
<path d="M509.608 0.596825L538.084 48.7801L544.011 38.4923L522.365 0.596624L509.608 0.596825ZM578.029 0.596825L550.067 48.7801L544.269 59.3283V93.0564H555.865V59.3272L590.656 0.59552L578.029 0.596825Z" fill="#F9F9F7"/>
<path d="M420.455 23.7122C420.301 23.709 420.117 23.7111 420.046 23.7175C419.975 23.7239 419.884 23.7362 419.844 23.7447C419.803 23.7532 419.757 23.7656 419.74 23.772L419.71 23.7837L419.777 23.8829C419.814 23.9376 419.917 24.074 420.005 24.186C420.093 24.2978 420.219 24.4522 420.285 24.5291C420.352 24.606 420.521 24.793 420.661 24.9448C420.801 25.0964 421.063 25.3661 421.243 25.5441C421.423 25.7221 421.729 26.0209 421.923 26.2082C422.117 26.3956 422.393 26.671 422.536 26.8205C422.68 26.97 422.946 27.2539 423.127 27.4514C423.309 27.649 423.506 27.8568 423.566 27.9132C423.625 27.9698 423.753 28.1045 423.849 28.2127C423.945 28.3211 424.098 28.4964 424.188 28.6027C424.278 28.7088 424.574 29.0687 424.846 29.4024C425.119 29.7362 425.552 30.2693 425.81 30.5872C426.068 30.9051 426.435 31.3539 426.625 31.5846C426.815 31.8152 427.077 32.1297 427.206 32.2835C427.335 32.4372 427.564 32.7065 427.715 32.882C427.866 33.0573 428.072 33.2939 428.172 33.4074C428.273 33.5211 428.479 33.749 428.63 33.9139C428.782 34.0787 429.064 34.3724 429.257 34.5665C429.45 34.7605 429.675 34.9798 429.758 35.0538C429.84 35.128 429.975 35.2438 430.057 35.3113C430.14 35.379 430.277 35.4816 430.361 35.5395C430.446 35.5974 430.569 35.6715 430.635 35.7041C430.701 35.7368 430.79 35.7729 430.833 35.7841C430.876 35.7953 430.928 35.8046 430.948 35.8046C430.968 35.8046 431.002 35.7961 431.023 35.7846C431.044 35.7736 431.075 35.7452 431.093 35.7214C431.11 35.6975 431.134 35.6457 431.145 35.6062C431.157 35.5666 431.17 35.4799 431.174 35.4132C431.178 35.3467 431.175 35.2142 431.167 35.119C431.159 35.0239 431.135 34.8428 431.114 34.7167C431.093 34.5906 431.052 34.381 431.023 34.2508C430.993 34.1206 430.94 33.9003 430.903 33.7611C430.867 33.622 430.791 33.3494 430.734 33.1555C430.677 32.9614 430.568 32.611 430.492 32.3767C430.416 32.1424 430.297 31.7859 430.227 31.5846C430.157 31.3832 430.035 31.0418 429.956 30.8259C429.877 30.6098 429.746 30.2626 429.666 30.054C429.586 29.8455 429.457 29.5148 429.378 29.319C429.3 29.1233 429.164 28.794 429.078 28.587C428.991 28.3801 428.87 28.0969 428.809 27.9575C428.748 27.8181 428.651 27.5993 428.593 27.4712C428.535 27.343 428.414 27.0825 428.323 26.8921C428.232 26.7017 428.103 26.4427 428.037 26.3164C427.971 26.1902 427.884 26.0284 427.844 25.9569C427.804 25.8855 427.733 25.7672 427.686 25.694C427.64 25.6208 427.569 25.5198 427.53 25.4696C427.48 25.4063 427.424 25.3562 427.348 25.3056C427.288 25.2656 427.155 25.1919 427.053 25.1418C426.951 25.0918 426.782 25.0167 426.678 24.975C426.574 24.9332 426.369 24.8582 426.222 24.8081C426.075 24.7579 425.819 24.6772 425.654 24.6286C425.489 24.5802 425.196 24.4994 425.002 24.4491C424.808 24.3988 424.476 24.3189 424.265 24.2712C424.053 24.2236 423.745 24.1574 423.58 24.1241C423.415 24.0908 423.165 24.043 423.025 24.0179C422.884 23.9923 422.638 23.9504 422.476 23.9244C422.317 23.8984 422.075 23.8622 421.941 23.8441C421.81 23.826 421.592 23.7989 421.46 23.784C421.326 23.769 421.11 23.7481 420.977 23.7374C420.843 23.7268 420.608 23.7157 420.455 23.7122ZM418.656 24.8761C418.652 24.8764 418.607 24.9222 418.557 24.9775C418.507 25.0331 418.279 25.2827 418.052 25.5326L417.638 25.987L417.675 26.0269C417.695 26.0488 417.76 26.1297 417.82 26.2066C417.88 26.2834 418.009 26.4391 418.106 26.5527C418.203 26.6661 418.438 26.9181 418.628 27.1126C418.819 27.3071 419.247 27.7261 419.581 28.0439C419.914 28.3615 420.366 28.8015 420.583 29.0214C420.801 29.2415 421.081 29.5322 421.205 29.6677C421.328 29.8031 421.497 29.9919 421.579 30.0871C421.661 30.1822 421.775 30.317 421.833 30.3866C421.891 30.4561 422.011 30.6066 422.101 30.7208C422.191 30.8352 422.274 30.9426 422.286 30.9596C422.297 30.9767 422.309 30.9879 422.311 30.9847C422.314 30.9816 422.334 30.9459 422.355 30.9057C422.377 30.8654 422.41 30.7666 422.43 30.686C422.449 30.6055 422.483 30.4737 422.505 30.3932C422.527 30.3126 422.571 30.1569 422.603 30.0471C422.635 29.9372 422.7 29.7284 422.747 29.583L422.832 29.3185L422.774 29.2569C422.743 29.2229 422.594 29.0603 422.444 28.8956C422.294 28.7308 422.065 28.4822 421.936 28.3431C421.806 28.204 421.604 27.9892 421.486 27.8655C421.367 27.742 421.115 27.4905 420.925 27.3066C420.735 27.1228 420.416 26.8118 420.218 26.6156C420.019 26.4193 419.736 26.1287 419.589 25.9697C419.443 25.8108 419.251 25.5968 419.163 25.4943C419.075 25.3919 418.927 25.2107 418.834 25.0916C418.74 24.9726 418.661 24.8757 418.656 24.8761ZM416.645 27.1148C416.64 27.1127 416.472 27.2984 416.272 27.5275C416.072 27.7564 415.805 28.0637 415.679 28.2101C415.553 28.3565 415.344 28.6035 415.214 28.7587C415.083 28.914 414.887 29.1506 414.778 29.2845C414.669 29.4185 414.485 29.6478 414.37 29.7943C414.256 29.9407 414.087 30.1623 413.996 30.2868C413.905 30.4113 413.78 30.5902 413.718 30.6843C413.657 30.7786 413.575 30.9193 413.538 30.997C413.477 31.1224 413.469 31.1474 413.47 31.2185C413.471 31.2776 413.488 31.3506 413.537 31.4982C413.574 31.608 413.65 31.8117 413.708 31.9508C413.765 32.0899 413.864 32.3236 413.929 32.47C413.994 32.6164 414.108 32.871 414.184 33.0358C414.259 33.2004 414.423 33.5539 414.549 33.8212C414.674 34.0884 414.88 34.5227 415.005 34.7863C415.131 35.0499 415.434 35.6849 415.68 36.1974C415.926 36.7099 416.241 37.3689 416.381 37.6618C416.521 37.9546 416.765 38.4667 416.923 38.7999C417.08 39.133 417.303 39.6063 417.418 39.8516C417.533 40.0969 417.724 40.5072 417.842 40.7635C417.961 41.0197 418.13 41.3882 418.218 41.5822C418.306 41.7761 418.464 42.1296 418.57 42.3676C418.676 42.6055 418.83 42.956 418.912 43.1463C418.995 43.3367 419.14 43.6782 419.234 43.9051C419.329 44.1321 419.445 44.4117 419.491 44.5265C419.537 44.6413 419.576 44.7334 419.578 44.7313C419.58 44.7292 419.64 44.4015 419.711 44.0034C419.782 43.6052 419.888 43.0219 419.946 42.7071C420.004 42.3922 420.119 41.7781 420.202 41.3426C420.284 40.9069 420.426 40.1731 420.516 39.7118C420.605 39.2505 420.781 38.364 420.905 37.7416C421.03 37.1192 421.208 36.2356 421.302 35.7781C421.395 35.3204 421.534 34.6465 421.61 34.2804C421.686 33.9143 421.778 33.4694 421.815 33.2917L421.882 32.9688L421.704 32.6994C421.607 32.5512 421.467 32.3462 421.394 32.2437C421.321 32.1412 421.197 31.9732 421.119 31.8703C421.042 31.7674 420.9 31.5876 420.806 31.4709C420.711 31.3541 420.548 31.1601 420.443 31.0396C420.339 30.9191 420.156 30.7154 420.036 30.587C419.917 30.4585 419.673 30.2065 419.495 30.0271C419.316 29.8475 418.947 29.4881 418.674 29.2283C418.402 28.9685 418.055 28.6354 417.904 28.4882C417.754 28.341 417.551 28.1373 417.454 28.0354C417.357 27.9336 417.211 27.7754 417.13 27.6841C417.048 27.5927 416.908 27.428 416.818 27.3182C416.728 27.2083 416.65 27.1168 416.645 27.1148ZM422.997 34.8667C422.991 34.8592 422.986 34.8592 422.986 34.8646C422.986 34.8709 422.916 35.2177 422.83 35.636C422.745 36.0541 422.595 36.7887 422.498 37.2684C422.401 37.7479 422.231 38.6044 422.119 39.1719C422.007 39.7393 421.84 40.599 421.747 41.0822C421.655 41.5655 421.552 42.1016 421.52 42.2736C421.488 42.4458 421.423 42.7931 421.376 43.0457C421.33 43.2983 421.242 43.7835 421.18 44.124C421.12 44.4644 421.043 44.8957 421.011 45.0825C420.979 45.2691 420.919 45.616 420.879 45.8531C420.84 46.0904 420.809 46.286 420.811 46.2882C420.813 46.2903 420.857 46.2839 420.909 46.2735C420.962 46.2628 421.146 46.231 421.32 46.2014C421.494 46.172 421.789 46.1272 421.975 46.1017C422.162 46.0763 422.47 46.0375 422.66 46.0154C422.85 45.9933 423.132 45.9633 423.286 45.9485C423.441 45.9337 423.637 45.9156 423.724 45.9082C423.81 45.9007 423.995 45.8858 424.134 45.8749C424.274 45.8641 424.533 45.8461 424.709 45.835C424.884 45.8238 425.198 45.8059 425.407 45.7951C425.615 45.7845 425.943 45.7695 426.137 45.7618C426.331 45.7543 426.71 45.7421 426.979 45.735C427.248 45.7276 427.811 45.7184 428.231 45.7138C428.667 45.7084 429.347 45.7116 429.816 45.7201C430.268 45.7286 430.779 45.741 430.951 45.7479C431.124 45.7554 431.343 45.7647 431.44 45.7696L431.615 45.7781L431.525 45.6463C431.476 45.5739 431.374 45.4278 431.299 45.3217C431.224 45.2155 431.065 44.9969 430.947 44.8358C430.828 44.6747 430.649 44.4351 430.549 44.3033C430.448 44.1715 430.24 43.9019 430.086 43.7043C429.931 43.5066 429.625 43.1201 429.405 42.8456C429.186 42.571 428.783 42.0738 428.511 41.7407C428.24 41.4075 427.573 40.5958 427.031 39.9369C426.488 39.278 425.842 38.4902 425.595 38.1863C425.347 37.8826 424.986 37.4362 424.792 37.1946C424.599 36.953 424.323 36.6055 424.179 36.4225C424.036 36.2395 423.824 35.9668 423.709 35.8168C423.594 35.6666 423.39 35.3942 423.254 35.2111C423.119 35.0281 423.003 34.8736 422.997 34.8667ZM410.253 44.1796C410.185 44.1805 410.089 44.1871 410.039 44.193C409.99 44.1994 409.912 44.2137 409.865 44.2247C409.819 44.2357 409.737 44.2633 409.684 44.2862C409.63 44.3089 409.5 44.3862 409.394 44.4575C409.289 44.5289 409.144 44.6338 409.072 44.6908C409.001 44.7478 408.88 44.8496 408.805 44.9173C408.73 44.9848 408.571 45.1412 408.452 45.2647C408.334 45.3881 408.169 45.57 408.086 45.6689C408.003 45.7676 407.868 45.9361 407.785 46.0431C407.703 46.15 407.54 46.366 407.424 46.5231C407.308 46.6802 407.213 46.8125 407.213 46.817C407.213 46.8213 407.324 46.9108 407.458 47.015C407.593 47.1193 407.847 47.3217 408.022 47.4649C408.198 47.608 408.486 47.8476 408.662 47.9973C408.837 48.1469 409.084 48.3593 409.21 48.4693C409.335 48.5794 409.576 48.7923 409.744 48.9424C409.913 49.0926 410.233 49.3801 410.455 49.5816C410.678 49.7831 411.133 50.1968 411.467 50.5013C411.8 50.8056 412.255 51.2194 412.478 51.4208C412.7 51.6222 413.05 51.9365 413.254 52.1194C413.459 52.3022 413.831 52.6315 414.082 52.8512C414.334 53.0707 414.748 53.4273 415.002 53.6434C415.257 53.8596 415.574 54.1266 415.707 54.2368C415.84 54.347 416.121 54.5777 416.333 54.7493C416.545 54.921 416.798 55.1253 416.896 55.2033C416.994 55.2812 417.086 55.3522 417.1 55.3612C417.122 55.3753 417.194 55.3457 417.639 55.1403C417.922 55.01 418.544 54.7219 419.022 54.5001C419.5 54.2783 420.158 53.9714 420.483 53.8179C420.809 53.6645 421.138 53.5086 421.215 53.4717C421.293 53.4347 421.356 53.3993 421.356 53.3931C421.356 53.3867 421.257 53.1543 421.136 52.8766C421.015 52.5988 420.86 52.2457 420.792 52.092C420.723 51.9382 420.596 51.6536 420.508 51.4596C420.42 51.2655 420.264 50.9272 420.162 50.7075C420.059 50.4879 419.891 50.1314 419.787 49.9155C419.684 49.6994 419.497 49.322 419.373 49.0768C419.249 48.8314 419.06 48.4691 418.954 48.2714C418.849 48.0737 418.733 47.8613 418.698 47.7992L418.635 47.6866L418.478 47.6179C418.392 47.5801 418.228 47.506 418.113 47.4533C417.999 47.4004 417.749 47.2817 417.559 47.1893C417.369 47.0968 416.844 46.8334 416.392 46.6036C415.941 46.374 415.303 46.0517 414.974 45.8875C414.645 45.7233 414.205 45.5074 413.994 45.4075C413.784 45.3078 413.56 45.2022 413.495 45.1731C413.431 45.1438 413.269 45.0722 413.136 45.0139C413.004 44.9555 412.792 44.8657 412.667 44.8142C412.541 44.7628 412.339 44.6832 412.217 44.6371C412.095 44.5912 411.884 44.5169 411.748 44.4721C411.612 44.4274 411.386 44.3612 411.246 44.3254C411.105 44.2894 410.917 44.2476 410.827 44.2325C410.738 44.2173 410.6 44.1987 410.521 44.1915C410.442 44.184 410.321 44.1787 410.253 44.1796ZM428.668 47.2022C428.46 47.2031 428.019 47.2085 427.688 47.2138C427.356 47.2192 426.886 47.2305 426.644 47.2388C426.401 47.2473 426.012 47.2627 425.779 47.2737C425.546 47.2846 425.208 47.3024 425.029 47.3133C424.849 47.3243 424.541 47.3453 424.344 47.36C424.146 47.3747 423.853 47.3988 423.691 47.4136C423.53 47.4283 423.26 47.4551 423.091 47.4732C422.923 47.4915 422.664 47.5215 422.517 47.5401C422.37 47.5587 422.147 47.5889 422.021 47.607C421.896 47.6252 421.652 47.6644 421.48 47.6939C421.308 47.7235 421.055 47.7708 420.919 47.7993C420.783 47.8276 420.616 47.8638 420.55 47.8794L420.429 47.908L420.46 47.9632C420.477 47.9935 420.591 48.2161 420.714 48.4577C420.836 48.6994 421.047 49.1307 421.183 49.4162C421.32 49.7017 421.488 50.0581 421.558 50.2083C421.628 50.3583 421.77 50.6694 421.874 50.8995C421.978 51.1296 422.157 51.531 422.271 51.7914C422.386 52.0519 422.588 52.5166 422.719 52.8241C422.85 53.1316 423.043 53.5869 423.147 53.8358C423.251 54.0848 423.434 54.5281 423.554 54.8209C423.674 55.1138 423.871 55.599 423.991 55.8992C424.112 56.1994 424.307 56.6906 424.426 56.9908C424.544 57.291 424.748 57.8121 424.879 58.149C425.009 58.4858 425.238 59.0818 425.387 59.4736C425.536 59.8652 425.727 60.3684 425.811 60.5917C425.896 60.815 426.019 61.1295 426.085 61.2906C426.152 61.4517 426.274 61.7393 426.357 61.9296C426.44 62.12 426.59 62.4582 426.69 62.6813L426.873 63.087L426.901 63.0208C426.916 62.9844 426.955 62.8916 426.988 62.8148C427.021 62.7379 427.089 62.5763 427.138 62.4554C427.188 62.3345 427.347 61.9451 427.49 61.5901C427.633 61.2349 427.952 60.4293 428.199 59.7996C428.445 59.17 428.751 58.3821 428.878 58.049C429.005 57.7158 429.22 57.1467 429.356 56.7845C429.492 56.4221 429.709 55.838 429.838 55.4865C429.968 55.1351 430.17 54.578 430.289 54.2485C430.407 53.9191 430.589 53.407 430.693 53.1104C430.797 52.8138 430.956 52.3556 431.045 52.092C431.135 51.8284 431.308 51.3102 431.428 50.9405C431.549 50.5707 431.694 50.1154 431.752 49.9288C431.809 49.742 431.891 49.4695 431.935 49.3231C431.978 49.1767 432.049 48.9311 432.092 48.7773C432.135 48.6235 432.205 48.3627 432.248 48.1977C432.29 48.0326 432.346 47.8014 432.372 47.6838C432.398 47.5663 432.419 47.4497 432.419 47.4248C432.419 47.3999 432.415 47.3723 432.409 47.3637C432.403 47.3552 432.361 47.3415 432.314 47.3341C432.268 47.3267 432.124 47.3114 431.995 47.3004C431.866 47.2893 431.646 47.2742 431.506 47.2666C431.366 47.2592 431.093 47.247 430.899 47.2395C430.705 47.2321 430.209 47.22 429.796 47.213C429.384 47.2056 428.877 47.2012 428.668 47.2022ZM393.847 47.8606C393.416 47.8574 392.791 47.8596 392.457 47.8659C392.124 47.8712 391.715 47.8829 391.55 47.891C391.385 47.8995 391.165 47.9122 391.061 47.9197C390.957 47.9272 390.775 47.9451 390.657 47.959C390.538 47.9729 390.386 47.9962 390.317 48.0106C390.249 48.025 390.158 48.0501 390.115 48.0664C390.072 48.0828 390.021 48.1126 390.001 48.1328C389.981 48.153 389.965 48.1838 389.965 48.2014C389.965 48.219 389.975 48.2658 389.986 48.3057C389.997 48.3455 390.028 48.4168 390.053 48.4645C390.079 48.5121 390.144 48.6169 390.197 48.6975C390.251 48.778 390.355 48.9218 390.429 49.017C390.502 49.1121 390.64 49.2828 390.735 49.3963C390.831 49.5098 390.986 49.6895 391.08 49.7957C391.174 49.9018 391.329 50.0755 391.426 50.1818C391.522 50.2879 391.777 50.5634 391.993 50.794C392.209 51.0246 392.567 51.402 392.789 51.6327C393.012 51.8634 394.025 52.9028 395.04 53.9424C396.056 54.9821 397.075 56.0304 397.305 56.272C397.535 56.5136 397.846 56.8431 397.996 57.0043C398.147 57.1654 398.375 57.4141 398.504 57.5568C398.634 57.6995 398.806 57.8926 398.888 57.9859C398.969 58.0793 399.038 58.1556 399.04 58.1556C399.042 58.1556 399.093 58.0703 399.154 57.966C399.214 57.8616 399.346 57.6294 399.447 57.4501C399.547 57.2707 399.706 56.9831 399.799 56.8111C399.892 56.639 400.071 56.3036 400.197 56.0657C400.322 55.8276 400.534 55.4233 400.666 55.1671C400.799 54.9108 401.094 54.3388 401.322 53.8958C401.55 53.4528 401.813 52.9436 401.906 52.7642C402 52.5847 402.217 52.1685 402.389 51.839C402.561 51.5095 402.787 51.0782 402.891 50.8805C402.996 50.6828 403.204 50.2904 403.355 50.0086C403.505 49.7266 403.722 49.3262 403.837 49.1185C403.951 48.9109 404.115 48.6183 404.2 48.4684C404.286 48.3185 404.356 48.1914 404.356 48.1858C404.356 48.1805 404.21 48.1715 404.033 48.1665C403.855 48.1612 403.325 48.1427 402.855 48.1247C402.385 48.1068 401.605 48.0771 401.12 48.0588C400.636 48.0404 399.817 48.0105 399.3 47.9922C398.784 47.974 398.059 47.9502 397.689 47.9391C397.32 47.928 396.788 47.913 396.508 47.9056C396.228 47.8981 395.691 47.8863 395.315 47.8792C394.938 47.8717 394.277 47.8637 393.847 47.8606ZM406.493 48.1469L406.249 47.9584L406.204 48.0215C406.179 48.0563 406.106 48.1656 406.041 48.2645C405.977 48.3632 405.862 48.546 405.787 48.6705C405.712 48.795 405.589 49.0046 405.514 49.1364C405.438 49.2682 405.3 49.5138 405.207 49.6822C405.114 49.8506 404.938 50.1741 404.816 50.4011C404.693 50.628 404.538 50.9185 404.47 51.0467C404.401 51.1748 404.17 51.6151 403.954 52.0251C403.739 52.4352 403.428 53.0312 403.263 53.3497C403.098 53.6681 402.747 54.3481 402.483 54.8606C402.219 55.3731 401.886 56.0171 401.742 56.2916C401.599 56.5661 401.391 56.9615 401.279 57.1702C401.168 57.3788 400.995 57.6994 400.894 57.8824C400.793 58.0655 400.629 58.359 400.529 58.5347C400.428 58.7104 400.276 58.971 400.189 59.1138C400.103 59.2565 400.005 59.4153 399.972 59.4666C399.938 59.5179 399.907 59.5707 399.902 59.5839C399.897 59.5972 399.845 59.6841 399.786 59.7769C399.727 59.8698 399.63 60.0177 399.569 60.1056C399.508 60.1935 399.373 60.3851 399.269 60.5316C399.165 60.678 398.533 61.5406 397.865 62.4485C397.197 63.3563 396.55 64.2426 396.426 64.4177C396.303 64.5929 396.204 64.7386 396.207 64.7413C396.21 64.7445 396.413 64.6598 396.66 64.5539C396.906 64.4479 397.425 64.2236 397.812 64.0552C398.2 63.8868 398.928 63.5681 399.43 63.347C399.932 63.1258 400.766 62.7574 401.283 62.5283C401.799 62.2992 402.88 61.8182 403.683 61.4595C404.487 61.1008 405.42 60.6832 405.758 60.5315C406.095 60.3799 406.661 60.1254 407.017 59.9659C407.372 59.8064 408.223 59.423 408.908 59.1138C409.594 58.8047 410.838 58.2414 411.674 57.8625C412.51 57.4834 413.723 56.9322 414.368 56.6379C415.014 56.3434 415.556 56.0953 415.572 56.0865L415.602 56.0706L415.488 55.9786C415.424 55.9281 415.205 55.7489 415.001 55.5806C414.796 55.4122 414.494 55.1607 414.329 55.0217C414.164 54.8826 413.879 54.6399 413.696 54.4824C413.513 54.3248 413.24 54.088 413.09 53.9561C412.939 53.8242 412.631 53.5517 412.405 53.3506C412.179 53.1493 411.815 52.8228 411.596 52.6252C411.377 52.4274 410.843 51.9418 410.409 51.5462C409.974 51.1506 409.47 50.6918 409.287 50.5266C409.104 50.3612 408.769 50.0623 408.543 49.8624C408.317 49.6624 407.975 49.3649 407.783 49.201C407.59 49.0373 407.276 48.7755 407.085 48.6194C406.893 48.4633 406.627 48.2506 406.493 48.1469ZM421.944 54.7853C421.94 54.78 421.792 54.8453 421.616 54.9295C421.441 55.0138 420.98 55.2311 420.592 55.4126C420.205 55.5942 419.667 55.8446 419.398 55.9692C419.129 56.0937 418.574 56.3499 418.165 56.5381C417.756 56.7265 417.023 57.0633 416.535 57.2865C416.047 57.5098 415.292 57.8542 414.858 58.0518C414.424 58.2495 413.464 58.6855 412.725 59.0207C411.986 59.3559 410.796 59.8942 410.08 60.2171C409.365 60.5399 408.138 61.0923 407.354 61.4447C406.569 61.7971 405.223 62.3999 404.362 62.7844C403.501 63.1688 402.391 63.6631 401.896 63.8828C401.401 64.1025 400.562 64.4738 400.031 64.7078C399.5 64.942 398.704 65.2907 398.263 65.4828C397.822 65.6751 397.253 65.9216 396.999 66.0306L396.537 66.2291L396.594 66.2387C396.626 66.244 396.749 66.2541 396.867 66.2618C396.985 66.2693 397.276 66.2827 397.513 66.2911C397.787 66.3007 398.266 66.3035 398.83 66.2986C399.318 66.2943 399.97 66.2817 400.279 66.2705C400.587 66.2593 400.969 66.2441 401.127 66.2366C401.284 66.2291 401.581 66.2138 401.785 66.2027C401.99 66.1916 402.342 66.1707 402.568 66.1561C402.794 66.1414 403.173 66.1144 403.41 66.0961C403.647 66.0778 403.967 66.0505 404.121 66.0357C404.275 66.0209 404.51 65.9969 404.643 65.9821C404.775 65.9674 404.963 65.9436 405.059 65.9291C405.156 65.9148 405.264 65.8942 405.299 65.8837C405.334 65.873 405.501 65.8491 405.671 65.8303C405.841 65.8116 406.244 65.7664 406.567 65.7298C406.89 65.6931 407.404 65.6336 407.709 65.5974C408.014 65.5612 408.656 65.4833 409.137 65.4243C409.618 65.3654 410.575 65.2451 411.264 65.1573C411.953 65.0694 412.907 64.9467 413.384 64.8844C413.861 64.8222 414.524 64.7353 414.858 64.6912C415.192 64.6471 416.524 64.4709 417.819 64.2993C419.115 64.1278 420.679 63.9214 421.296 63.8404C421.913 63.7595 422.794 63.6457 423.253 63.5874C423.712 63.529 424.338 63.4516 424.643 63.4151C424.948 63.3786 425.234 63.3447 425.279 63.3397C425.352 63.3312 425.36 63.328 425.353 63.3051C425.349 63.2909 425.318 63.2213 425.286 63.1505C425.253 63.0795 425.165 62.8807 425.09 62.7087C425.014 62.5367 424.897 62.264 424.829 62.103C424.761 61.9419 424.659 61.6932 424.603 61.5505C424.547 61.4077 424.434 61.1104 424.351 60.8897C424.268 60.669 424.112 60.2587 424.005 59.9778C423.898 59.6969 423.715 59.2216 423.599 58.9214C423.483 58.6212 423.257 58.043 423.097 57.6368C422.937 57.2303 422.702 56.6403 422.575 56.3256C422.448 56.0107 422.256 55.5375 422.148 55.2739C422.04 55.0103 421.948 54.7901 421.944 54.7853ZM394.882 55.8957L394.578 55.5862L394.35 55.7545C394.224 55.847 393.989 56.0218 393.828 56.1431C393.667 56.2644 393.411 56.4592 393.26 56.5764C393.11 56.6934 392.881 56.8735 392.753 56.9764C392.624 57.0794 392.407 57.2589 392.27 57.3751C392.133 57.4915 391.971 57.6319 391.91 57.6874C391.849 57.7428 391.721 57.8663 391.625 57.9619C391.53 58.0574 391.414 58.1804 391.369 58.2353C391.324 58.2901 391.269 58.3649 391.246 58.4011C391.224 58.4373 391.206 58.4797 391.206 58.4955C391.206 58.5112 391.216 58.5341 391.229 58.5462C391.243 58.5584 391.289 58.5829 391.332 58.6008C391.375 58.6187 391.48 58.6513 391.566 58.6731C391.651 58.6949 391.812 58.7309 391.923 58.7528C392.034 58.7747 392.24 58.8109 392.38 58.833C392.52 58.8553 392.787 58.8942 392.973 58.9196C393.16 58.9452 393.486 58.9873 393.697 59.0132C393.909 59.0391 394.276 59.0816 394.513 59.1074C394.75 59.1333 395.178 59.178 395.465 59.2069C395.752 59.2358 396.184 59.2775 396.424 59.2997C396.665 59.3219 397.14 59.3639 397.48 59.3933C397.821 59.4226 398.12 59.4467 398.144 59.4467H398.188L398.12 59.3635C398.083 59.3177 397.945 59.1574 397.814 59.0074C397.684 58.8572 397.481 58.6296 397.364 58.5015C397.246 58.3733 397.033 58.1427 396.889 57.989C396.745 57.8352 396.304 57.3709 395.907 56.9573C395.511 56.5436 395.05 56.066 394.882 55.8957ZM422.462 65.1991C422.438 65.2001 422.016 65.2539 421.524 65.3191C421.032 65.3843 419.433 65.5961 417.969 65.7899C416.505 65.9837 414.92 66.1931 414.446 66.2553C413.973 66.3174 413.027 66.4402 412.346 66.5279C411.664 66.6158 410.698 66.7387 410.2 66.8008C409.701 66.8632 408.996 66.9501 408.634 66.9939C408.272 67.0378 407.708 67.1042 407.382 67.1416C407.055 67.1791 406.778 67.2136 406.765 67.2186C406.746 67.2261 406.784 67.2838 406.986 67.5538C407.119 67.7332 407.33 68.0087 407.453 68.1662C407.577 68.3235 407.751 68.5392 407.84 68.6454C407.93 68.7515 408.067 68.9078 408.146 68.9926C408.225 69.0774 408.355 69.2096 408.433 69.2864C408.512 69.3631 408.632 69.4712 408.7 69.5266C408.768 69.5819 408.868 69.6578 408.923 69.6954C408.978 69.7329 409.076 69.7904 409.141 69.8233C409.206 69.8562 409.305 69.8963 409.361 69.9124C409.434 69.9336 409.497 69.9415 409.586 69.9411C409.683 69.9406 409.727 69.9336 409.789 69.9097C409.832 69.8929 409.894 69.8619 409.928 69.8409C409.961 69.8201 410.067 69.7648 410.162 69.7183C410.258 69.6718 410.409 69.6028 410.498 69.5647C410.587 69.5267 410.734 69.4655 410.824 69.4287C410.915 69.3919 411.133 69.3059 411.308 69.2379C411.484 69.1698 411.895 69.0151 412.222 68.8941C412.548 68.773 413.065 68.5843 413.37 68.4745C413.675 68.3648 414.121 68.2051 414.361 68.1197C414.602 68.0343 415.55 67.6988 416.468 67.3742C417.387 67.0495 418.35 66.709 418.608 66.6176C418.866 66.526 419.357 66.3512 419.697 66.2291C420.038 66.1069 420.572 65.9143 420.885 65.8009C421.197 65.6876 421.687 65.5077 421.974 65.4012C422.261 65.2949 422.498 65.2056 422.501 65.2026C422.504 65.1994 422.487 65.198 422.462 65.1991Z" fill="#818181"/>
</svg>
