<svg width="497" height="54" viewBox="0 0 497 54" fill="none" xmlns="http://www.w3.org/2000/svg">
<path d="M1.00324 34.5669C1.20243 34.5669 1.30203 34.5669 1.50123 34.4668C7.07866 30.4599 16.8392 24.5499 19.5283 25.5516C19.6279 25.8521 19.1299 26.7536 17.7356 28.156C14.9468 30.7604 13.6521 32.1628 14.2497 33.3649C14.7476 34.4668 16.3412 34.3666 17.0384 34.2664C18.3331 34.1662 27.1973 32.3632 36.9578 29.2579C37.4558 29.1577 37.655 28.6569 37.5554 28.156C37.3562 27.6552 36.8582 27.4548 36.4598 27.555C26.7989 30.6603 18.1339 32.3632 16.8392 32.4633L16.0424 32.5635C16.2416 32.0627 17.0384 31.2613 18.9307 29.4582C20.1259 28.2562 21.6198 26.6535 21.3211 25.2511C21.2215 24.8504 21.0223 24.2494 20.1259 23.8487C17.636 22.9471 12.3573 25.5516 7.87544 28.156L10.8634 25.2511C11.2617 24.8504 11.2617 24.3495 10.8634 23.9488C10.5646 23.6483 9.96698 23.6483 9.66819 23.9488L0.405658 33.0644C0.00726966 33.3649 0.00726966 33.9659 0.306061 34.2664C0.505255 34.4668 0.704449 34.5669 1.00324 34.5669Z" fill="#818181"/>
<path d="M61.1311 28.156C61.0315 27.6552 60.5335 27.4548 60.0355 27.555C53.1633 29.9591 50.1754 29.0575 49.0799 28.3564C48.2831 27.8555 48.1835 27.2545 48.1835 27.1543V26.954C48.1835 26.5533 48.0839 26.0524 47.6855 25.5516C46.2911 23.9488 42.0085 23.3478 35.6342 28.156C32.5467 30.4599 31.3516 31.9625 31.75 33.2647C31.8496 33.5652 32.2479 34.3666 33.6423 34.3666C36.431 34.3666 42.3073 32.6637 47.2871 29.0575C47.2871 29.1577 47.3867 29.1577 47.4863 29.2579C48.3827 30.1594 49.8766 30.8606 52.4662 30.8606C54.4581 30.8606 57.1472 30.4599 60.6331 29.2579C61.0315 29.1577 61.3303 28.5567 61.1311 28.156ZM45.8927 27.7553C41.4109 30.9608 36.1322 32.6637 33.7419 32.6637H33.4431C33.6423 32.263 34.2399 31.3615 36.6302 29.5584C41.9089 25.6517 45.4944 25.7519 46.2911 26.6535C46.6895 27.0541 45.8927 27.6552 45.8927 27.7553Z" fill="#818181"/>
<path d="M61.3583 34.2664H61.4579C66.0394 34.2664 78.6882 31.5618 85.0624 29.2579C85.5604 29.0575 85.7596 28.5567 85.5604 28.156C85.4608 27.6552 84.9628 27.4548 84.4648 27.555C78.2898 29.8589 65.5414 32.5635 61.3583 32.4633C60.1631 32.4633 59.3664 32.1628 59.1672 31.662C59.0676 31.2613 59.3664 30.4599 60.2627 29.6586C66.9358 24.5499 70.7204 24.5499 71.816 25.2511C72.2144 25.4514 72.2144 25.6517 72.1148 25.8521C72.0152 26.3529 72.314 26.7536 72.812 26.8538C73.31 26.954 73.808 26.6535 73.9076 26.1526C74.1067 25.1509 73.7084 24.2494 72.7124 23.7485C70.7204 22.4463 66.139 22.9471 59.2668 28.2562C57.6732 29.4582 57.0756 30.9608 57.474 32.263C57.7728 32.9642 58.5696 34.2664 61.3583 34.2664Z" fill="#818181"/>
<path d="M111.268 28.0558C111.069 27.6552 110.571 27.4548 110.073 27.6552C105.292 29.1577 98.9181 31.662 91.8467 34.3666L88.9584 35.4685C94.9342 30.6603 99.4161 27.3546 99.5157 27.2545L99.6153 27.1543L100.213 26.8538C100.611 26.5533 100.81 26.0524 100.512 25.6517C100.312 25.1509 99.8145 24.9506 99.4161 25.2511C94.4362 27.7553 84.2773 32.864 81.9866 32.6637C82.1858 31.9625 83.4805 30.1594 87.6636 27.555C88.3608 27.1543 88.8588 26.6535 89.3568 26.3529L90.3527 25.5516C90.8507 25.3512 90.9503 24.7502 90.6515 24.3495C90.3527 23.9488 89.8548 23.8487 89.4564 24.1492L88.2612 24.9506C87.8628 25.2511 87.3648 25.6517 86.6676 26.0524C82.385 28.757 79.9946 31.3615 80.1938 32.9642C80.1938 33.5652 80.5922 34.0661 81.0902 34.2664C81.389 34.3666 81.6878 34.3666 81.9866 34.3666C83.7793 34.3666 86.8668 33.2647 92.6435 30.5601C89.556 32.9642 86.3689 35.2681 83.381 37.6722C70.9313 42.5806 62.6647 46.8879 61.2704 50.0934C60.9716 50.6944 60.0752 52.6978 61.2704 53.5993C61.4696 53.6995 61.7684 54 62.366 54C64.0591 54 68.7402 51.4957 82.385 40.6773L84.2773 39.1748L92.4443 36.0695C99.5157 33.3649 105.989 30.7604 110.87 29.2579C111.268 29.1577 111.467 28.4565 111.268 28.0558ZM62.4656 52.0968C62.4656 51.9966 62.4656 51.5959 62.8639 50.7945C63.8599 48.691 70.5329 44.7843 78.2019 41.5789C70.4333 47.4889 64.0591 52.2971 62.4656 52.0968Z" fill="#818181"/>
<path d="M134.954 28.0558C134.754 27.6552 134.256 27.4548 133.758 27.6552C128.978 29.6586 122.504 32.3632 115.433 35.0678L112.445 36.1697L121.608 28.757C121.707 28.6569 121.707 28.5567 121.807 28.5567C121.906 28.4565 122.006 28.3564 122.205 28.2562L123.301 27.2545C123.699 26.954 123.699 26.3529 123.4 26.0524C123.201 25.8521 122.902 25.6517 122.604 25.6517C122.205 25.0507 121.408 24.5499 120.512 24.7502L119.914 24.8504C117.524 25.1509 110.054 26.2528 108.062 29.6586C107.564 30.5601 107.465 31.7621 107.863 32.864C108.062 33.3649 108.56 34.2664 110.154 34.2664C110.851 34.2664 111.747 34.0661 112.743 33.6654C110.751 35.2681 108.859 36.8708 106.967 38.3734C94.5172 43.2818 86.4498 46.8879 84.9558 50.0934C84.7566 50.6944 83.8603 52.6978 85.0554 53.5993C85.2546 53.6995 85.5534 54 86.151 54C87.8441 54 92.2264 51.9966 105.971 41.3785L107.863 39.876L116.03 36.7707C123.102 34.0661 129.675 31.2613 134.555 29.2579C134.954 29.0575 135.153 28.4565 134.954 28.0558ZM109.457 32.263C109.258 31.5618 109.258 31.061 109.656 30.5601C110.353 29.3581 112.743 27.6552 120.213 26.5533L120.91 26.4531C121.01 26.4531 121.01 26.5533 121.11 26.5533C121.11 26.6535 121.01 26.8538 120.711 27.0541C118.719 28.5567 112.743 32.5635 110.154 32.5635C109.556 32.5635 109.556 32.3632 109.457 32.263ZM86.151 52.0968C86.151 51.9966 86.2506 51.5959 86.649 50.7945C87.5454 48.691 94.0192 45.4855 101.788 42.2801C94.0192 48.1901 87.8441 52.2971 86.151 52.0968Z" fill="#818181"/>
<path d="M131.693 34.3666C133.983 34.3666 138.067 32.864 141.951 31.2613C141.553 31.8623 141.453 32.3632 141.553 32.7639C141.752 33.6654 142.549 34.1662 144.043 34.2664C151.214 34.8674 166.95 30.3598 169.34 29.2579C169.739 29.0575 169.938 28.6569 169.838 28.156C169.739 27.6552 169.241 27.4548 168.743 27.555C166.95 28.3564 151.014 33.0644 144.142 32.4633C143.744 32.4633 143.545 32.3632 143.345 32.3632C143.644 31.8623 144.839 30.4599 150.516 27.1543C150.815 27.0541 151.612 26.6535 151.114 25.8521C150.815 25.2511 150.417 25.3512 149.919 25.5516L148.923 25.9523C148.923 25.5516 148.724 25.0507 148.524 24.65C147.031 22.5465 142.549 22.0456 136.174 26.0524C131.792 28.757 129.501 31.3615 129.601 32.9642C129.701 33.5652 129.999 34.0661 130.497 34.2664C130.796 34.3666 131.195 34.3666 131.693 34.3666ZM131.394 32.6637C131.693 31.9625 132.987 30.1594 137.071 27.555C142.947 23.8487 146.333 24.65 147.031 25.6517C147.329 26.1526 147.13 26.6535 146.632 27.1543C137.668 31.4616 132.888 32.7639 131.394 32.6637Z" fill="#818181"/>
<path d="M219.702 34.2664H219.802C224.383 34.2664 237.032 31.5618 243.406 29.2579C243.904 29.0575 244.103 28.5567 243.904 28.156C243.805 27.6552 243.307 27.4548 242.809 27.555C236.634 29.8589 223.885 32.5635 219.702 32.4633C218.507 32.4633 217.71 32.1628 217.511 31.662C217.411 31.2613 217.71 30.4599 218.607 29.6586C225.28 24.5499 229.064 24.5499 230.16 25.2511C230.558 25.4514 230.558 25.6517 230.459 25.8521C230.359 26.3529 230.658 26.7536 231.156 26.8538C231.654 26.954 232.152 26.6535 232.251 26.1526C232.451 25.1509 232.052 24.2494 231.056 23.7485C229.064 22.4463 224.483 22.9471 217.611 28.2562C216.017 29.4582 215.419 30.9608 215.818 32.263C216.117 32.9642 216.913 34.2664 219.702 34.2664Z" fill="#818181"/>
<path d="M267.62 28.156C267.52 27.6552 267.022 27.4548 266.524 27.555C259.652 29.9591 256.664 29.0575 255.569 28.3564C254.772 27.8555 254.672 27.2545 254.672 27.1543V26.954C254.672 26.5533 254.573 26.0524 254.174 25.5516C252.78 23.9488 248.497 23.3478 242.123 28.156C239.036 30.4599 237.84 31.9625 238.239 33.2647C238.338 33.5652 238.737 34.3666 240.131 34.3666C242.92 34.3666 248.796 32.6637 253.776 29.0575C253.776 29.1577 253.876 29.1577 253.975 29.2579C254.872 30.1594 256.366 30.8606 258.955 30.8606C260.947 30.8606 263.636 30.4599 267.122 29.2579C267.52 29.1577 267.819 28.5567 267.62 28.156ZM252.382 27.7553C247.9 30.9608 242.621 32.6637 240.231 32.6637H239.932C240.131 32.263 240.729 31.3615 243.119 29.5584C248.398 25.6517 251.983 25.7519 252.78 26.6535C253.178 27.0541 252.382 27.6552 252.382 27.7553Z" fill="#818181"/>
<path d="M356.09 0.208438C352.505 -1.59463 336.768 8.52259 322.327 21.9454L321.63 22.5465C319.837 24.1492 316.55 27.1543 311.869 33.0644C311.77 33.1645 311.67 33.3649 311.67 33.6654V33.8657C311.67 33.9659 311.77 34.1662 311.869 34.2664C312.268 34.5669 312.766 34.5669 313.164 34.2664C322.725 24.8504 330.095 23.8487 331.589 25.0507C331.689 25.1509 331.888 25.2511 331.589 25.8521C330.295 28.156 326.709 30.2596 323.622 31.4616L322.825 31.5618C320.136 31.662 318.642 31.7621 317.646 32.7639C317.447 32.9642 317.347 33.1645 317.347 33.3649C317.347 33.6654 317.447 33.8657 317.646 34.0661C317.945 34.3666 318.443 34.4668 319.04 34.4668L319.937 34.3666C321.032 34.2664 322.426 33.8657 324.02 33.2647C328.103 32.9642 334.677 32.3632 345.633 29.2579C346.131 29.1577 346.33 28.6569 346.23 28.156C346.131 27.6552 345.633 27.4548 345.135 27.555C337.764 29.6586 332.386 30.5601 328.402 31.061C330.394 29.8589 332.187 28.3563 333.183 26.7536C333.781 25.5516 333.681 24.3495 332.685 23.6483C330.892 22.246 326.211 22.6466 320.136 26.4531C321.231 25.3512 322.128 24.5499 322.825 23.9488L323.422 23.3478C327.506 21.7451 356.389 10.0251 356.987 2.01151C357.086 1.21014 356.688 0.508951 356.09 0.208438ZM355.294 1.91134C354.895 7.02003 337.864 15.3342 327.307 19.7417C341.25 7.62106 352.306 1.61082 354.895 1.61082L355.294 1.711V1.91134Z" fill="#818181"/>
<path d="M376.312 28.156C376.213 27.7553 375.715 27.4548 375.217 27.555C375.018 27.6552 357.489 32.4633 350.517 32.4633C350.318 32.4633 349.72 32.4633 349.62 32.263C349.421 31.8623 349.72 30.7604 350.218 29.9591C350.616 29.1577 350.417 28.4565 350.019 28.0558L349.62 27.7553C352.21 26.6535 354.202 25.9523 354.899 26.1526C354.799 26.7536 355.098 27.2545 355.596 27.3546C355.995 27.4548 356.493 27.1543 356.592 26.7536C356.891 25.6517 356.393 25.0507 356.094 24.7502C354.7 23.7485 350.616 25.2511 346.732 27.1543L349.023 24.8504C349.322 24.5499 349.322 23.9488 349.023 23.6483C348.624 23.2477 348.126 23.2477 347.728 23.6483C342.151 29.1577 338.665 32.9642 338.665 33.0644C338.366 33.3649 338.366 33.9659 338.764 34.2664C338.864 34.4668 339.063 34.5669 339.362 34.5669C339.561 34.5669 339.76 34.4668 339.959 34.2664C339.959 34.1662 340.955 33.1645 342.649 31.3615C343.346 30.9608 344.043 30.5601 344.74 30.2596C346.334 29.5584 347.828 29.2579 348.525 29.3581C348.126 30.1594 347.33 31.8623 348.126 33.1645C348.425 33.6654 349.023 34.2664 350.517 34.2664C357.688 34.2664 374.918 29.4582 375.715 29.2579C376.113 29.1577 376.412 28.6569 376.312 28.156Z" fill="#818181"/>
<path d="M401.889 28.0558C401.69 27.6552 401.192 27.4548 400.694 27.6552C395.914 29.1577 389.539 31.662 382.468 34.3666L379.58 35.4685C385.555 30.6603 390.037 27.3546 390.137 27.2545L390.237 27.1543L390.834 26.8538C391.233 26.5533 391.432 26.0524 391.133 25.6517C390.934 25.1509 390.436 24.9506 390.037 25.2511C385.057 27.7553 374.899 32.864 372.608 32.6637C372.807 31.9625 374.102 30.1594 378.285 27.555C378.982 27.1543 379.48 26.6535 379.978 26.3529L380.974 25.5516C381.472 25.3512 381.572 24.7502 381.273 24.3495C380.974 23.9488 380.476 23.8487 380.078 24.1492L378.882 24.9506C378.484 25.2511 377.986 25.6517 377.289 26.0524C373.006 28.757 370.616 31.3615 370.815 32.9642C370.815 33.5652 371.213 34.0661 371.711 34.2664C372.01 34.3666 372.309 34.3666 372.608 34.3666C374.401 34.3666 377.488 33.2647 383.265 30.5601C380.177 32.9642 376.99 35.2681 374.002 37.6722C361.553 42.5806 353.286 46.8879 351.892 50.0934C351.593 50.6944 350.696 52.6978 351.892 53.5993C352.091 53.6995 352.39 54 352.987 54C354.68 54 359.361 51.4957 373.006 40.6773L374.899 39.1748L383.066 36.0695C390.137 33.3649 396.611 30.7604 401.491 29.2579C401.889 29.1577 402.089 28.4565 401.889 28.0558ZM353.087 52.0968C353.087 51.9966 353.087 51.5959 353.485 50.7945C354.481 48.691 361.154 44.7843 368.823 41.5789C361.055 47.4889 354.68 52.2971 353.087 52.0968Z" fill="#818181"/>
<path d="M402.07 34.2664H402.17C406.751 34.2664 419.4 31.5618 425.774 29.2579C426.272 29.0575 426.471 28.5567 426.272 28.156C426.172 27.6552 425.674 27.4548 425.176 27.555C419.001 29.8589 406.253 32.5635 402.07 32.4633C400.875 32.4633 400.078 32.1628 399.879 31.662C399.779 31.2613 400.078 30.4599 400.974 29.6586C407.647 24.5499 411.432 24.5499 412.528 25.2511C412.926 25.4514 412.926 25.6517 412.826 25.8521C412.727 26.3529 413.026 26.7536 413.524 26.8538C414.022 26.954 414.52 26.6535 414.619 26.1526C414.818 25.1509 414.42 24.2494 413.424 23.7485C411.432 22.4463 406.851 22.9471 399.978 28.2562C398.385 29.4582 397.787 30.9608 398.186 32.263C398.484 32.9642 399.281 34.2664 402.07 34.2664Z" fill="#818181"/>
<path d="M449.988 28.156C449.888 27.6552 449.39 27.4548 448.892 27.555C442.02 29.9591 439.032 29.0575 437.937 28.3564C437.14 27.8555 437.04 27.2545 437.04 27.1543V26.954C437.04 26.5533 436.941 26.0524 436.542 25.5516C435.148 23.9488 430.865 23.3478 424.491 28.156C421.403 30.4599 420.208 31.9625 420.607 33.2647C420.706 33.5652 421.105 34.3666 422.499 34.3666C425.288 34.3666 431.164 32.6637 436.144 29.0575C436.144 29.1577 436.243 29.1577 436.343 29.2579C437.239 30.1594 438.733 30.8606 441.323 30.8606C443.315 30.8606 446.004 30.4599 449.49 29.2579C449.888 29.1577 450.187 28.5567 449.988 28.156ZM434.749 27.7553C430.268 30.9608 424.989 32.6637 422.599 32.6637H422.3C422.499 32.263 423.097 31.3615 425.487 29.5584C430.766 25.6517 434.351 25.7519 435.148 26.6535C435.546 27.0541 434.749 27.6552 434.749 27.7553Z" fill="#818181"/>
<path d="M496.03 28.156C495.83 27.6552 495.332 27.4548 494.934 27.555C488.56 29.9591 478.102 32.5635 474.019 32.4633C473.421 32.4633 473.322 32.3632 473.322 32.3632C473.023 31.8623 474.417 29.3581 478.6 25.4514C478.999 25.1509 479.098 24.65 478.899 24.3495C478.799 24.2494 478.799 24.2494 478.799 24.2494L478.6 24.049C478.301 23.7485 477.803 23.7485 477.505 24.049C477.405 24.1492 477.206 24.2494 477.106 24.4497C463.959 33.8657 461.967 32.5635 461.967 32.5635C461.669 31.9625 463.262 28.9574 467.346 25.4514C467.645 25.0507 467.744 24.5499 467.445 24.1492C467.246 23.8487 466.947 23.7485 466.549 23.8487C466.449 23.8487 466.35 23.8487 466.25 23.9488C462.266 26.1526 451.41 32.0627 449.02 32.6637C447.924 32.864 447.426 32.864 447.227 32.864C447.227 32.5635 447.625 31.5618 449.817 29.0575C450.115 28.6569 450.115 28.0558 449.717 27.7553C449.319 27.4548 448.821 27.4548 448.522 27.8555C445.833 30.8606 444.936 32.6637 445.634 33.7656C446.032 34.4668 446.729 34.6671 447.526 34.6671C448.223 34.6671 448.821 34.4668 449.418 34.3666C451.311 33.8657 457.585 30.6603 462.167 28.2562C460.573 30.2596 459.577 32.3632 460.573 33.6654C460.772 33.9659 461.171 34.3666 462.266 34.3666C463.76 34.3666 466.649 33.465 472.425 29.6586C471.728 30.9608 471.33 32.0627 471.628 32.9642C471.828 33.5652 472.425 34.2664 474.019 34.2664H474.118C478.6 34.2664 488.958 31.662 495.532 29.2579C495.93 29.0575 496.229 28.5567 496.03 28.156Z" fill="#818181"/>
</svg>
