<svg width="189" height="56" viewBox="0 0 189 56" fill="none" xmlns="http://www.w3.org/2000/svg">
<rect width="189" height="56" rx="12" fill="#F9A7AB"/>
<path d="M33.5646 21.1191L34.9467 18.6925C33.9595 17.8947 32.8078 17.2299 31.5574 16.7313C30.2741 16.2659 28.8591 16 27.2796 16C26.062 16 24.9432 16.1662 23.923 16.4654C22.87 16.7645 21.9815 17.1967 21.2575 17.795C20.5007 18.3933 19.9084 19.1246 19.5135 19.9889C19.0857 20.8532 18.8883 21.8504 18.8883 22.9806C18.8883 23.9114 19.0199 24.7091 19.3489 25.374C19.6451 26.0388 20.1058 26.6039 20.6981 27.0693C21.2904 27.5346 22.0473 27.9335 22.9687 28.2659C23.8572 28.5983 24.9102 28.9308 26.0948 29.1967C27.1478 29.4626 28.1021 29.7285 28.9578 29.9945C29.8134 30.2604 30.5044 30.5263 31.0967 30.8587C31.6562 31.1911 32.0839 31.59 32.3801 32.0554C32.6763 32.5208 32.8408 33.0526 32.8408 33.7175C32.8408 34.9141 32.3801 35.8116 31.4587 36.41C30.5373 37.0083 29.2211 37.3075 27.5758 37.3075C26.6544 37.3075 25.7989 37.241 24.9762 37.0415C24.1535 36.8421 23.3967 36.6094 22.6727 36.3102C21.9488 36.0111 21.3236 35.6787 20.7642 35.2798C20.2047 34.9141 19.7441 34.5485 19.415 34.1496L18 36.6759C19.3163 37.7729 20.7642 38.6039 22.3765 39.169C23.9889 39.7341 25.7001 40 27.51 40C28.6946 40 29.8134 39.9003 30.8666 39.6344C31.8867 39.3684 32.7751 38.9695 33.532 38.4377C34.2889 37.9058 34.8812 37.2078 35.3419 36.3767C35.7697 35.5457 36 34.5485 36 33.4183C36 32.3546 35.8026 31.4571 35.4406 30.7258C35.0786 29.9945 34.5521 29.3962 33.8611 28.8643C33.17 28.3657 32.3474 27.9336 31.3602 27.6012C30.373 27.2688 29.287 26.9363 28.1025 26.6704C27.0494 26.4377 26.1281 26.205 25.3712 25.9724C24.5814 25.7729 23.9562 25.507 23.4297 25.2078C22.9032 24.9086 22.5412 24.543 22.3109 24.1109C22.0476 23.712 21.9489 23.1801 21.9489 22.5153C21.9489 21.3186 22.3438 20.3879 23.1994 19.6898C24.0549 19.025 25.3712 18.6593 27.2141 18.6593C27.9051 18.6593 28.5633 18.7591 29.2214 18.892C29.8795 19.025 30.4718 19.2244 31.0313 19.4571C31.5578 19.6898 32.0514 19.9557 32.5121 20.2217C32.9398 20.5208 33.3018 20.82 33.5651 21.1192L33.5646 21.1191Z" fill="#F9F9F7"/>
<path d="M54.6823 20.2254L52.8704 16.1352H50.07L53.3315 23.3015L54.6823 20.2254ZM69.7712 16.0001L61.8643 36.4168L60.4147 39.4591L60.6454 39.9999H63.2151L73 16L69.7712 16.0001ZM57.6474 26.1409L61.8973 16.1352H59.097L50.1357 36.4168L42.1958 16.0001H39L48.7519 40H51.3216L56 29.0141L59.0638 36.3156L60.5793 33.3072L57.6474 26.1409Z" fill="#F9F9F7"/>
<path d="M87.595 19.279L86.2891 22.8621L89.3028 30.6029H83.3425L82.4384 32.9691H89.9726L92.7854 40H96L87.595 19.279ZM86.2891 16H83.7443L74 40H77.0807L85.0169 19.5154L86.2891 16Z" fill="#F9F9F7"/>
<path d="M101 39.9997H104V26.5099L101 22.5548V39.9997ZM118 16.0336V34.6928L103.333 16H101V17.8253L104 21.6788L118.467 40H121V16.0336L118 16.0336Z" fill="#F9F9F7"/>
<path d="M132.006 16.0336H129V28.6083L132.006 25.3293V16.0336ZM137.949 26.5802L147.466 16H144.227L132.005 29.2844L129 32.5295V40H132.005V32.6647L136.112 28.338L144.728 40H148L137.949 26.5802Z" fill="#F9F9F7"/>
<path d="M150 16.0003L157.378 28.5072L158.914 25.8368L153.305 16.0003L150 16.0003ZM167.728 16.0003L160.483 28.5072L158.981 31.2452V40H161.986V31.245L171 16L167.728 16.0003Z" fill="#F9F9F7"/>
<path d="M126.9 22.0004C126.86 21.9996 126.812 22.0001 126.794 22.0018C126.776 22.0034 126.752 22.0066 126.742 22.0088C126.731 22.011 126.719 22.0142 126.715 22.0159L126.707 22.0189L126.724 22.0447C126.734 22.0589 126.761 22.0943 126.783 22.1234C126.806 22.1524 126.839 22.1925 126.856 22.2124C126.873 22.2324 126.917 22.2809 126.953 22.3203C126.99 22.3597 127.058 22.4297 127.104 22.4759C127.151 22.5221 127.23 22.5997 127.28 22.6483C127.331 22.6969 127.402 22.7684 127.439 22.8072C127.476 22.846 127.545 22.9197 127.592 22.971C127.64 23.0223 127.691 23.0762 127.706 23.0908C127.721 23.1055 127.755 23.1405 127.779 23.1686C127.804 23.1967 127.844 23.2422 127.867 23.2698C127.891 23.2973 127.967 23.3908 128.038 23.4774C128.108 23.564 128.221 23.7024 128.288 23.7849C128.354 23.8675 128.45 23.9839 128.499 24.0438C128.548 24.1037 128.616 24.1853 128.649 24.2252C128.683 24.2651 128.742 24.335 128.781 24.3806C128.82 24.4261 128.874 24.4875 128.9 24.517C128.926 24.5465 128.979 24.6056 129.018 24.6484C129.058 24.6912 129.131 24.7675 129.181 24.8178C129.231 24.8682 129.289 24.9251 129.31 24.9443C129.332 24.9636 129.367 24.9936 129.388 25.0112C129.409 25.0287 129.445 25.0554 129.467 25.0704C129.489 25.0854 129.521 25.1047 129.538 25.1131C129.555 25.1216 129.578 25.131 129.589 25.1339C129.6 25.1368 129.614 25.1392 129.619 25.1392C129.624 25.1392 129.633 25.137 129.638 25.134C129.644 25.1312 129.652 25.1238 129.656 25.1176C129.661 25.1114 129.667 25.098 129.67 25.0877C129.673 25.0774 129.676 25.0549 129.677 25.0376C129.679 25.0204 129.678 24.986 129.676 24.9612C129.673 24.9366 129.667 24.8895 129.662 24.8568C129.656 24.8241 129.646 24.7697 129.638 24.7359C129.631 24.7021 129.617 24.6449 129.607 24.6088C129.598 24.5727 129.578 24.5019 129.563 24.4516C129.549 24.4012 129.52 24.3102 129.501 24.2494C129.481 24.1886 129.45 24.0961 129.432 24.0438C129.414 23.9915 129.382 23.9029 129.362 23.8469C129.341 23.7908 129.307 23.7007 129.287 23.6465C129.266 23.5924 129.232 23.5066 129.212 23.4557C129.192 23.405 129.157 23.3195 129.134 23.2657C129.112 23.212 129.08 23.1385 129.065 23.1023C129.049 23.0662 129.024 23.0094 129.009 22.9761C128.994 22.9428 128.962 22.8752 128.939 22.8258C128.915 22.7764 128.882 22.7091 128.865 22.6764C128.848 22.6436 128.825 22.6016 128.815 22.5831C128.804 22.5645 128.786 22.5338 128.774 22.5148C128.762 22.4958 128.743 22.4696 128.733 22.4566C128.72 22.4401 128.706 22.4271 128.686 22.414C128.671 22.4036 128.636 22.3845 128.61 22.3715C128.583 22.3585 128.54 22.339 128.513 22.3282C128.486 22.3173 128.432 22.2978 128.394 22.2849C128.356 22.2718 128.29 22.2509 128.247 22.2383C128.204 22.2257 128.128 22.2047 128.078 22.1917C128.028 22.1786 127.942 22.1579 127.887 22.1455C127.832 22.1331 127.752 22.116 127.71 22.1073C127.667 22.0987 127.602 22.0863 127.566 22.0797C127.53 22.0731 127.466 22.0622 127.424 22.0555C127.382 22.0487 127.32 22.0393 127.285 22.0346C127.251 22.0299 127.195 22.0229 127.16 22.019C127.126 22.0151 127.07 22.0097 127.035 22.0069C127.001 22.0042 126.94 22.0013 126.9 22.0004ZM126.434 22.3025C126.433 22.3026 126.421 22.3145 126.408 22.3288C126.395 22.3432 126.336 22.4081 126.277 22.4729L126.17 22.5908L126.18 22.6012C126.185 22.6069 126.202 22.6279 126.217 22.6479C126.233 22.6678 126.266 22.7082 126.291 22.7377C126.317 22.7671 126.377 22.8325 126.427 22.883C126.476 22.9335 126.587 23.0423 126.674 23.1248C126.76 23.2072 126.877 23.3214 126.933 23.3785C126.99 23.4356 127.062 23.5111 127.094 23.5463C127.126 23.5814 127.17 23.6304 127.191 23.6551C127.212 23.6798 127.242 23.7148 127.257 23.7329C127.272 23.7509 127.303 23.79 127.327 23.8196C127.35 23.8493 127.371 23.8772 127.374 23.8816C127.377 23.886 127.38 23.889 127.381 23.8881C127.382 23.8873 127.387 23.878 127.392 23.8676C127.398 23.8571 127.407 23.8315 127.412 23.8106C127.417 23.7897 127.426 23.7555 127.431 23.7346C127.437 23.7137 127.448 23.6732 127.457 23.6447C127.465 23.6162 127.482 23.562 127.494 23.5243L127.516 23.4556L127.501 23.4396C127.493 23.4308 127.454 23.3886 127.415 23.3458C127.376 23.3031 127.317 23.2385 127.284 23.2024C127.25 23.1663 127.198 23.1106 127.167 23.0785C127.136 23.0464 127.071 22.9811 127.022 22.9334C126.972 22.8857 126.89 22.805 126.839 22.754C126.787 22.7031 126.714 22.6276 126.676 22.5864C126.638 22.5451 126.588 22.4896 126.565 22.463C126.542 22.4364 126.504 22.3893 126.48 22.3585C126.456 22.3276 126.435 22.3024 126.434 22.3025ZM125.913 22.8836C125.912 22.883 125.868 22.9312 125.816 22.9907C125.764 23.0502 125.695 23.1299 125.663 23.1679C125.63 23.2059 125.576 23.27 125.542 23.3103C125.508 23.3506 125.457 23.412 125.429 23.4468C125.401 23.4816 125.353 23.5411 125.324 23.5791C125.294 23.6171 125.25 23.6746 125.227 23.707C125.203 23.7393 125.171 23.7857 125.155 23.8101C125.139 23.8346 125.118 23.8711 125.108 23.8913C125.092 23.9239 125.09 23.9303 125.09 23.9488C125.09 23.9641 125.095 23.9831 125.108 24.0214C125.117 24.0499 125.137 24.1028 125.152 24.1389C125.167 24.175 125.192 24.2356 125.209 24.2736C125.226 24.3117 125.256 24.3777 125.275 24.4205C125.295 24.4632 125.337 24.555 125.37 24.6244C125.402 24.6937 125.455 24.8065 125.488 24.8749C125.521 24.9433 125.599 25.1081 125.663 25.2412C125.727 25.3742 125.808 25.5453 125.845 25.6213C125.881 25.6973 125.944 25.8302 125.985 25.9167C126.026 26.0032 126.083 26.126 126.113 26.1897C126.143 26.2534 126.192 26.3599 126.223 26.4264C126.254 26.4929 126.298 26.5885 126.32 26.6389C126.343 26.6892 126.384 26.781 126.412 26.8428C126.439 26.9045 126.479 26.9955 126.5 27.0449C126.522 27.0943 126.559 27.1829 126.584 27.2419C126.608 27.3008 126.638 27.3733 126.65 27.4032C126.662 27.4329 126.672 27.4569 126.673 27.4563C126.673 27.4557 126.689 27.3707 126.707 27.2674C126.726 27.164 126.753 27.0126 126.768 26.9309C126.783 26.8492 126.813 26.6898 126.834 26.5767C126.856 26.4636 126.892 26.2731 126.916 26.1534C126.939 26.0337 126.984 25.8035 127.017 25.642C127.049 25.4804 127.095 25.2511 127.119 25.1323C127.144 25.0135 127.18 24.8386 127.199 24.7436C127.219 24.6486 127.243 24.5331 127.252 24.4869L127.27 24.4031L127.224 24.3332C127.198 24.2947 127.162 24.2415 127.143 24.2149C127.124 24.1883 127.092 24.1447 127.072 24.118C127.052 24.0913 127.015 24.0446 126.991 24.0143C126.966 23.984 126.924 23.9336 126.897 23.9024C126.87 23.8711 126.822 23.8182 126.792 23.7849C126.761 23.7515 126.697 23.6861 126.651 23.6395C126.605 23.5929 126.509 23.4996 126.439 23.4322C126.368 23.3648 126.278 23.2783 126.239 23.2401C126.2 23.2019 126.148 23.149 126.123 23.1226C126.097 23.0961 126.06 23.0551 126.038 23.0314C126.017 23.0077 125.981 22.9649 125.958 22.9364C125.934 22.9079 125.914 22.8841 125.913 22.8836ZM127.559 24.8957C127.557 24.8938 127.556 24.8938 127.556 24.8952C127.556 24.8969 127.538 24.9869 127.516 25.0954C127.493 25.204 127.455 25.3946 127.43 25.5192C127.404 25.6436 127.36 25.866 127.331 26.0133C127.302 26.1605 127.259 26.3837 127.235 26.5091C127.211 26.6346 127.184 26.7737 127.176 26.8184C127.168 26.863 127.151 26.9532 127.139 27.0188C127.127 27.0843 127.104 27.2103 127.088 27.2987C127.072 27.387 127.052 27.499 127.044 27.5475C127.036 27.5959 127.02 27.686 127.01 27.7475C127 27.8091 126.992 27.8599 126.992 27.8604C126.993 27.861 127.004 27.8593 127.018 27.8566C127.031 27.8538 127.079 27.8456 127.124 27.8379C127.169 27.8303 127.246 27.8186 127.294 27.812C127.342 27.8054 127.422 27.7954 127.471 27.7896C127.521 27.7839 127.594 27.7761 127.634 27.7723C127.674 27.7684 127.725 27.7637 127.747 27.7618C127.769 27.7598 127.817 27.756 127.853 27.7531C127.89 27.7504 127.957 27.7457 128.002 27.7428C128.048 27.7399 128.129 27.7352 128.183 27.7324C128.237 27.7297 128.322 27.7258 128.372 27.7238C128.423 27.7218 128.521 27.7187 128.59 27.7168C128.66 27.7149 128.806 27.7125 128.915 27.7113C129.028 27.7099 129.204 27.7108 129.326 27.713C129.443 27.7152 129.575 27.7184 129.62 27.7202C129.664 27.7221 129.721 27.7246 129.746 27.7258L129.792 27.728L129.768 27.6938C129.756 27.675 129.729 27.6371 129.71 27.6095C129.69 27.582 129.649 27.5252 129.619 27.4834C129.588 27.4416 129.541 27.3794 129.515 27.3452C129.489 27.311 129.435 27.241 129.395 27.1897C129.355 27.1384 129.276 27.0381 129.219 26.9668C129.162 26.8956 129.058 26.7665 128.988 26.68C128.917 26.5936 128.744 26.3829 128.604 26.2118C128.463 26.0408 128.296 25.8363 128.232 25.7574C128.168 25.6786 128.074 25.5627 128.024 25.5C127.974 25.4373 127.902 25.3471 127.865 25.2996C127.828 25.2521 127.773 25.1813 127.743 25.1424C127.713 25.1034 127.66 25.0327 127.625 24.9852C127.59 24.9376 127.56 24.8975 127.559 24.8957ZM124.257 27.3131C124.239 27.3133 124.214 27.315 124.201 27.3166C124.188 27.3182 124.168 27.322 124.156 27.3248C124.144 27.3277 124.123 27.3348 124.109 27.3408C124.095 27.3467 124.061 27.3667 124.034 27.3852C124.007 27.4038 123.969 27.431 123.951 27.4458C123.932 27.4606 123.901 27.487 123.881 27.5046C123.862 27.5221 123.821 27.5627 123.79 27.5948C123.759 27.6268 123.717 27.674 123.695 27.6997C123.674 27.7253 123.639 27.769 123.617 27.7968C123.596 27.8246 123.554 27.8806 123.524 27.9214C123.494 27.9622 123.469 27.9965 123.469 27.9977C123.469 27.9988 123.498 28.022 123.532 28.0491C123.567 28.0761 123.633 28.1287 123.679 28.1659C123.724 28.203 123.799 28.2652 123.844 28.304C123.89 28.3429 123.954 28.398 123.986 28.4266C124.019 28.4552 124.081 28.5104 124.125 28.5494C124.169 28.5884 124.251 28.663 124.309 28.7153C124.367 28.7676 124.485 28.875 124.571 28.954C124.658 29.033 124.775 29.1404 124.833 29.1927C124.891 29.245 124.981 29.3265 125.034 29.374C125.087 29.4215 125.184 29.507 125.249 29.564C125.314 29.621 125.421 29.7135 125.487 29.7696C125.553 29.8257 125.635 29.895 125.67 29.9236C125.704 29.9523 125.777 30.0121 125.832 30.0567C125.887 30.1012 125.952 30.1543 125.978 30.1745C126.003 30.1947 126.027 30.2132 126.031 30.2155C126.036 30.2192 126.055 30.2115 126.17 30.1582C126.244 30.1243 126.405 30.0496 126.529 29.992C126.653 29.9344 126.823 29.8547 126.907 29.8149C126.992 29.7751 127.077 29.7346 127.097 29.7251C127.117 29.7154 127.133 29.7063 127.133 29.7047C127.133 29.703 127.108 29.6427 127.076 29.5706C127.045 29.4985 127.005 29.4068 126.987 29.3669C126.97 29.327 126.937 29.2531 126.914 29.2028C126.891 29.1524 126.851 29.0646 126.824 29.0076C126.797 28.9505 126.754 28.858 126.727 28.802C126.7 28.7459 126.652 28.6479 126.62 28.5843C126.587 28.5206 126.539 28.4265 126.511 28.3752C126.484 28.3239 126.454 28.2687 126.445 28.2526L126.428 28.2234L126.388 28.2056C126.366 28.1958 126.323 28.1765 126.293 28.1629C126.264 28.1491 126.199 28.1183 126.15 28.0943C126.1 28.0703 125.964 28.0019 125.847 27.9423C125.73 27.8827 125.565 27.799 125.48 27.7564C125.395 27.7138 125.281 27.6577 125.226 27.6318C125.172 27.606 125.113 27.5785 125.097 27.571C125.08 27.5634 125.038 27.5448 125.004 27.5297C124.969 27.5145 124.915 27.4912 124.882 27.4778C124.85 27.4645 124.797 27.4438 124.765 27.4319C124.734 27.4199 124.679 27.4007 124.644 27.389C124.609 27.3774 124.55 27.3602 124.514 27.3509C124.477 27.3416 124.429 27.3307 124.405 27.3268C124.382 27.3229 124.346 27.3181 124.326 27.3162C124.306 27.3143 124.274 27.3129 124.257 27.3131ZM129.028 28.0977C128.974 28.0979 128.86 28.0993 128.774 28.1007C128.688 28.1021 128.566 28.105 128.504 28.1072C128.441 28.1094 128.34 28.1134 128.279 28.1162C128.219 28.1191 128.132 28.1237 128.085 28.1265C128.039 28.1294 127.959 28.1348 127.908 28.1386C127.856 28.1425 127.78 28.1487 127.739 28.1525C127.697 28.1564 127.627 28.1633 127.583 28.168C127.539 28.1728 127.472 28.1806 127.434 28.1854C127.396 28.1902 127.338 28.198 127.306 28.2028C127.273 28.2075 127.21 28.2177 127.166 28.2253C127.121 28.233 127.056 28.2453 127.02 28.2527C126.985 28.26 126.942 28.2694 126.925 28.2735L126.893 28.2809L126.901 28.2952C126.906 28.3031 126.935 28.3609 126.967 28.4236C126.999 28.4863 127.053 28.5982 127.089 28.6724C127.124 28.7465 127.168 28.839 127.186 28.878C127.204 28.9169 127.241 28.9977 127.268 29.0574C127.295 29.1171 127.341 29.2213 127.371 29.2889C127.4 29.3565 127.453 29.4771 127.487 29.557C127.521 29.6368 127.571 29.7549 127.598 29.8196C127.625 29.8842 127.672 29.9992 127.703 30.0753C127.734 30.1513 127.785 30.2772 127.816 30.3552C127.847 30.4331 127.898 30.5606 127.929 30.6385C127.96 30.7164 128.012 30.8517 128.046 30.9391C128.08 31.0265 128.139 31.1812 128.178 31.283C128.217 31.3846 128.266 31.5152 128.288 31.5732C128.31 31.6311 128.342 31.7128 128.359 31.7546C128.376 31.7964 128.408 31.871 128.429 31.9205C128.451 31.9699 128.49 32.0577 128.516 32.1156L128.563 32.2209L128.57 32.2037C128.574 32.1942 128.584 32.1702 128.593 32.1502C128.601 32.1303 128.619 32.0883 128.632 32.0569C128.645 32.0256 128.686 31.9245 128.723 31.8323C128.76 31.7401 128.843 31.531 128.906 31.3676C128.97 31.2041 129.049 30.9996 129.082 30.9132C129.115 30.8267 129.171 30.679 129.206 30.5849C129.242 30.4909 129.298 30.3393 129.331 30.248C129.365 30.1568 129.417 30.0122 129.448 29.9267C129.479 29.8412 129.526 29.7082 129.553 29.6313C129.58 29.5543 129.621 29.4353 129.644 29.3669C129.667 29.2985 129.712 29.164 129.743 29.068C129.775 28.972 129.812 28.8539 129.827 28.8054C129.842 28.7569 129.863 28.6862 129.875 28.6482C129.886 28.6102 129.904 28.5464 129.915 28.5065C129.926 28.4666 129.945 28.3989 129.956 28.3561C129.967 28.3132 129.981 28.2532 129.988 28.2227C129.995 28.1922 130 28.1619 130 28.1554C130 28.149 129.999 28.1418 129.997 28.1396C129.996 28.1374 129.985 28.1338 129.973 28.1319C129.961 28.13 129.924 28.126 129.89 28.1232C129.857 28.1203 129.8 28.1164 129.763 28.1144C129.727 28.1125 129.656 28.1093 129.606 28.1074C129.556 28.1054 129.427 28.1023 129.32 28.1005C129.214 28.0985 129.082 28.0974 129.028 28.0977ZM120.006 28.2686C119.894 28.2677 119.732 28.2683 119.646 28.27C119.559 28.2713 119.453 28.2744 119.411 28.2765C119.368 28.2787 119.311 28.282 119.284 28.2839C119.257 28.2859 119.21 28.2905 119.179 28.2941C119.148 28.2977 119.109 28.3038 119.091 28.3075C119.073 28.3112 119.05 28.3178 119.039 28.322C119.028 28.3262 119.014 28.334 119.009 28.3392C119.004 28.3445 119 28.3525 119 28.357C119 28.3616 119.002 28.3738 119.005 28.3841C119.008 28.3944 119.016 28.413 119.023 28.4253C119.029 28.4377 119.046 28.4649 119.06 28.4858C119.074 28.5067 119.101 28.544 119.12 28.5687C119.139 28.5934 119.175 28.6377 119.2 28.6672C119.224 28.6966 119.264 28.7433 119.289 28.7709C119.313 28.7984 119.353 28.8435 119.378 28.8711C119.403 28.8986 119.469 28.9701 119.525 29.03C119.581 29.0898 119.674 29.1878 119.732 29.2477C119.789 29.3076 120.052 29.5774 120.315 29.8472C120.578 30.1171 120.842 30.3892 120.902 30.4519C120.961 30.5146 121.042 30.6001 121.081 30.642C121.12 30.6838 121.179 30.7484 121.213 30.7854C121.246 30.8224 121.291 30.8726 121.312 30.8968C121.333 30.921 121.351 30.9409 121.351 30.9409C121.352 30.9409 121.365 30.9187 121.381 30.8916C121.396 30.8645 121.431 30.8043 121.457 30.7577C121.483 30.7111 121.524 30.6365 121.548 30.5919C121.572 30.5472 121.618 30.4601 121.651 30.3984C121.684 30.3366 121.738 30.2316 121.773 30.1651C121.807 30.0986 121.884 29.9501 121.943 29.8351C122.002 29.7201 122.07 29.588 122.094 29.5414C122.118 29.4948 122.174 29.3868 122.219 29.3012C122.264 29.2157 122.322 29.1038 122.349 29.0525C122.376 29.0011 122.43 28.8993 122.469 28.8261C122.508 28.7529 122.565 28.649 122.594 28.5951C122.624 28.5412 122.666 28.4653 122.688 28.4263C122.71 28.3874 122.729 28.3544 122.729 28.353C122.729 28.3516 122.691 28.3493 122.645 28.348C122.599 28.3466 122.462 28.3418 122.34 28.3371C122.218 28.3325 122.016 28.3248 121.89 28.32C121.765 28.3153 121.553 28.3075 121.419 28.3027C121.285 28.298 121.097 28.2918 121.001 28.289C120.906 28.2861 120.768 28.2822 120.695 28.2803C120.623 28.2783 120.484 28.2752 120.386 28.2734C120.288 28.2715 120.117 28.2694 120.006 28.2686ZM123.282 28.3429L123.219 28.294L123.208 28.3103C123.201 28.3194 123.182 28.3477 123.165 28.3734C123.149 28.399 123.119 28.4465 123.1 28.4788C123.08 28.5111 123.048 28.5655 123.029 28.5997C123.009 28.634 122.973 28.6977 122.949 28.7414C122.925 28.7851 122.879 28.8691 122.848 28.928C122.816 28.9869 122.776 29.0623 122.758 29.0956C122.74 29.1288 122.68 29.2431 122.625 29.3496C122.569 29.456 122.488 29.6107 122.445 29.6934C122.403 29.776 122.312 29.9525 122.243 30.0856C122.175 30.2186 122.089 30.3857 122.051 30.457C122.014 30.5283 121.96 30.6309 121.932 30.6851C121.903 30.7392 121.858 30.8224 121.832 30.8699C121.806 30.9174 121.763 30.9936 121.737 31.0393C121.711 31.0849 121.671 31.1525 121.649 31.1896C121.627 31.2266 121.601 31.2678 121.593 31.2811C121.584 31.2944 121.576 31.3081 121.575 31.3116C121.573 31.315 121.56 31.3376 121.545 31.3617C121.529 31.3858 121.504 31.4242 121.488 31.447C121.473 31.4698 121.438 31.5196 121.411 31.5576C121.384 31.5956 121.22 31.8195 121.047 32.0551C120.874 32.2908 120.706 32.5208 120.674 32.5663C120.642 32.6118 120.616 32.6496 120.617 32.6503C120.618 32.6511 120.671 32.6291 120.735 32.6016C120.798 32.5741 120.933 32.5159 121.033 32.4722C121.134 32.4285 121.322 32.3458 121.452 32.2884C121.583 32.2309 121.799 32.1353 121.932 32.0759C122.066 32.0164 122.346 31.8916 122.554 31.7984C122.763 31.7053 123.004 31.5969 123.092 31.5576C123.179 31.5182 123.326 31.4521 123.418 31.4107C123.51 31.3694 123.731 31.2698 123.908 31.1896C124.086 31.1093 124.408 30.9631 124.625 30.8648C124.842 30.7664 125.156 30.6233 125.323 30.5469C125.49 30.4705 125.631 30.4061 125.635 30.4038L125.643 30.3996L125.613 30.3758C125.597 30.3626 125.54 30.3161 125.487 30.2724C125.434 30.2287 125.356 30.1635 125.313 30.1274C125.27 30.0913 125.196 30.0283 125.149 29.9874C125.101 29.9465 125.031 29.885 124.992 29.8508C124.953 29.8165 124.873 29.7458 124.814 29.6936C124.756 29.6414 124.661 29.5566 124.605 29.5053C124.548 29.454 124.409 29.3279 124.297 29.2253C124.184 29.1226 124.054 29.0035 124.006 28.9606C123.959 28.9177 123.872 28.8401 123.814 28.7882C123.755 28.7363 123.666 28.659 123.617 28.6165C123.567 28.574 123.485 28.506 123.436 28.4655C123.386 28.425 123.317 28.3698 123.282 28.3429ZM127.286 30.066C127.285 30.0646 127.247 30.0816 127.201 30.1034C127.155 30.1253 127.036 30.1817 126.936 30.2288C126.835 30.276 126.696 30.341 126.626 30.3733C126.557 30.4056 126.413 30.4721 126.307 30.521C126.201 30.5699 126.011 30.6573 125.884 30.7153C125.758 30.7732 125.562 30.8626 125.45 30.9139C125.337 30.9652 125.089 31.0784 124.897 31.1654C124.706 31.2524 124.397 31.3921 124.212 31.4759C124.027 31.5597 123.709 31.7031 123.505 31.7946C123.302 31.8861 122.953 32.0425 122.73 32.1423C122.507 32.2421 122.22 32.3704 122.091 32.4275C121.963 32.4845 121.746 32.5808 121.608 32.6416C121.47 32.7024 121.264 32.7929 121.15 32.8428C121.036 32.8927 120.888 32.9567 120.822 32.985L120.703 33.0365L120.718 33.039C120.726 33.0403 120.758 33.043 120.788 33.045C120.819 33.0469 120.894 33.0504 120.956 33.0526C121.027 33.0551 121.151 33.0558 121.297 33.0545C121.423 33.0534 121.592 33.0501 121.672 33.0472C121.752 33.0443 121.851 33.0404 121.892 33.0384C121.933 33.0365 122.01 33.0325 122.063 33.0296C122.116 33.0268 122.207 33.0213 122.265 33.0175C122.324 33.0137 122.422 33.0067 122.484 33.0019C122.545 32.9972 122.628 32.9901 122.668 32.9863C122.708 32.9824 122.769 32.9762 122.803 32.9724C122.837 32.9686 122.886 32.9624 122.911 32.9586C122.936 32.9549 122.964 32.9496 122.973 32.9468C122.982 32.9441 123.025 32.9378 123.069 32.933C123.113 32.9281 123.218 32.9164 123.302 32.9069C123.385 32.8973 123.518 32.8819 123.597 32.8725C123.676 32.8631 123.843 32.8429 123.968 32.8276C124.092 32.8123 124.34 32.7811 124.519 32.7583C124.697 32.7354 124.944 32.7036 125.068 32.6874C125.191 32.6713 125.363 32.6487 125.45 32.6373C125.536 32.6258 125.882 32.5801 126.217 32.5356C126.553 32.4911 126.958 32.4375 127.118 32.4165C127.278 32.3954 127.506 32.3659 127.625 32.3508C127.744 32.3356 127.906 32.3155 127.985 32.306C128.064 32.2966 128.138 32.2878 128.15 32.2865C128.169 32.2843 128.171 32.2835 128.169 32.2775C128.168 32.2738 128.16 32.2557 128.152 32.2374C128.143 32.2189 128.12 32.1673 128.101 32.1227C128.081 32.078 128.051 32.0073 128.033 31.9655C128.016 31.9236 127.989 31.8591 127.975 31.8221C127.96 31.785 127.931 31.7078 127.909 31.6505C127.888 31.5932 127.848 31.4867 127.82 31.4138C127.792 31.3409 127.745 31.2175 127.715 31.1396C127.685 31.0617 127.626 30.9116 127.585 30.8062C127.543 30.7007 127.482 30.5475 127.449 30.4658C127.416 30.3841 127.367 30.2613 127.339 30.1928C127.311 30.1244 127.287 30.0673 127.286 30.066ZM120.274 30.3542L120.195 30.2739L120.136 30.3176C120.103 30.3416 120.043 30.387 120.001 30.4185C119.959 30.4499 119.893 30.5005 119.854 30.5309C119.815 30.5613 119.756 30.6081 119.722 30.6348C119.689 30.6615 119.633 30.7081 119.597 30.7383C119.562 30.7685 119.52 30.8049 119.504 30.8193C119.488 30.8337 119.455 30.8658 119.43 30.8906C119.405 30.9153 119.375 30.9473 119.364 30.9615C119.352 30.9758 119.338 30.9952 119.332 31.0046C119.326 31.014 119.321 31.025 119.321 31.0291C119.321 31.0332 119.324 31.0391 119.328 31.0422C119.331 31.0454 119.343 31.0517 119.354 31.0564C119.365 31.0611 119.393 31.0695 119.415 31.0752C119.437 31.0808 119.478 31.0902 119.507 31.0959C119.536 31.1015 119.589 31.1109 119.626 31.1167C119.662 31.1225 119.731 31.1326 119.779 31.1392C119.828 31.1458 119.912 31.1567 119.967 31.1634C120.022 31.1702 120.117 31.1812 120.178 31.1879C120.24 31.1946 120.351 31.2062 120.425 31.2137C120.499 31.2212 120.611 31.2321 120.674 31.2378C120.736 31.2436 120.859 31.2545 120.947 31.2621C121.035 31.2697 121.113 31.276 121.119 31.276H121.13L121.113 31.2544C121.103 31.2425 121.068 31.2009 121.034 31.1619C121 31.123 120.947 31.0639 120.917 31.0306C120.887 30.9974 120.831 30.9375 120.794 30.8976C120.757 30.8577 120.642 30.7372 120.54 30.6298C120.437 30.5224 120.317 30.3984 120.274 30.3542ZM127.42 32.7691C127.414 32.7694 127.304 32.7833 127.177 32.8003C127.05 32.8172 126.635 32.8722 126.256 32.9225C125.877 32.9728 125.466 33.0271 125.343 33.0433C125.22 33.0594 124.976 33.0913 124.799 33.114C124.622 33.1369 124.372 33.1687 124.243 33.1849C124.114 33.2011 123.931 33.2236 123.837 33.235C123.743 33.2464 123.597 33.2636 123.513 33.2733C123.428 33.2831 123.356 33.292 123.353 33.2933C123.348 33.2953 123.358 33.3102 123.41 33.3803C123.445 33.4269 123.499 33.4984 123.531 33.5393C123.563 33.5801 123.608 33.6361 123.632 33.6637C123.655 33.6912 123.69 33.7318 123.711 33.7538C123.731 33.7758 123.765 33.8101 123.785 33.8301C123.806 33.85 123.837 33.878 123.854 33.8924C123.872 33.9068 123.898 33.9265 123.912 33.9362C123.926 33.946 123.952 33.9609 123.969 33.9694C123.985 33.9779 124.011 33.9884 124.025 33.9926C124.045 33.9981 124.061 34.0001 124.084 34C124.109 33.9999 124.12 33.9981 124.136 33.9918C124.147 33.9875 124.164 33.9794 124.172 33.974C124.181 33.9686 124.208 33.9542 124.233 33.9422C124.258 33.9301 124.297 33.9122 124.32 33.9023C124.343 33.8924 124.381 33.8766 124.405 33.867C124.428 33.8574 124.485 33.8351 124.53 33.8175C124.576 33.7998 124.682 33.7596 124.767 33.7282C124.851 33.6968 124.985 33.6478 125.064 33.6193C125.143 33.5908 125.259 33.5494 125.321 33.5272C125.383 33.5051 125.629 33.418 125.867 33.3337C126.105 33.2494 126.355 33.1611 126.421 33.1373C126.488 33.1135 126.615 33.0682 126.704 33.0365C126.792 33.0048 126.93 32.9548 127.011 32.9253C127.092 32.8959 127.219 32.8492 127.294 32.8216C127.368 32.794 127.429 32.7708 127.43 32.77C127.431 32.7692 127.426 32.7688 127.42 32.7691Z" fill="#818181"/>
</svg>
