<svg width="23" height="30" viewBox="0 0 23 30" fill="none" xmlns="http://www.w3.org/2000/svg">
<path d="M21.4866 17.6474C21.2785 17.6474 21.1395 17.7208 21.0006 17.868L11.9098 27.5002L11.9098 0.735504C11.9098 0.294407 11.6324 -4.64109e-07 11.2156 -4.82329e-07C10.7993 -5.00527e-07 10.5214 0.293895 10.5214 0.735504L10.5214 27.5002L1.43011 17.868C1.29118 17.7208 1.08301 17.6474 0.944074 17.6474C0.805139 17.6474 0.596978 17.7208 0.458041 17.868C0.180652 18.1619 0.180652 18.6035 0.458041 18.8974L10.7291 29.7796C11.0065 30.0735 11.4233 30.0735 11.7007 29.7796L22.042 18.8974C22.3193 18.6035 22.3193 18.1619 22.042 17.868C21.903 17.7208 21.6948 17.6474 21.4866 17.6474Z" fill="white"/>
</svg>
