<svg width="25" height="23" viewBox="0 0 25 23" fill="none" xmlns="http://www.w3.org/2000/svg">
<path d="M18.7335 23H6.26453C3.08585 23 0.5 20.3956 0.5 17.1965V5.80152C0.5 2.60244 3.08585 0 6.26453 0H18.7335C21.9122 0 24.4981 2.60244 24.4981 5.80152V17.1965C24.5 20.3956 21.9122 23 18.7335 23ZM6.26453 1.74674C4.04335 1.74674 2.2356 3.56609 2.2356 5.80152V17.1965C2.2356 19.4339 4.04335 21.2533 6.26648 21.2533H18.7335C20.9567 21.2533 22.7644 19.4339 22.7644 17.1965V5.80152C22.7644 3.56609 20.9567 1.74674 18.7335 1.74674H6.26453Z" fill="#FFF9F9"/>
<path d="M12.499 17.8247C9.01808 17.8247 6.18652 14.9749 6.18652 11.4716C6.18652 7.96835 9.01808 5.11862 12.499 5.11862C15.98 5.11862 18.8115 7.97032 18.8115 11.4716C18.8115 14.9749 15.98 17.8247 12.499 17.8247ZM12.499 6.86536C9.97559 6.86536 7.92212 8.932 7.92212 11.4716C7.92212 14.0113 9.97559 16.0779 12.499 16.0779C15.0244 16.0799 17.0759 14.0132 17.0759 11.4716C17.0759 8.93004 15.0244 6.86536 12.499 6.86536Z" fill="#FFF9F9"/>
<path d="M19.5117 5.731C20.0782 5.731 20.5374 5.26881 20.5374 4.69866C20.5374 4.12852 20.0782 3.66632 19.5117 3.66632C18.9451 3.66632 18.4859 4.12852 18.4859 4.69866C18.4859 5.26881 18.9451 5.731 19.5117 5.731Z" fill="#FFF9F9"/>
</svg>
