<svg width="15" height="20" viewBox="0 0 15 20" fill="none" xmlns="http://www.w3.org/2000/svg">
<path d="M0.520469 8.23505C0.662398 8.23505 0.757128 8.18615 0.851858 8.08801L7.05013 1.66654L7.05013 19.5097C7.05013 19.8037 7.23926 20 7.52345 20C7.80731 20 7.99677 19.8041 7.99677 19.5097L7.99677 1.66654L14.1954 8.08801C14.2901 8.18615 14.432 8.23505 14.5268 8.23505C14.6215 8.23505 14.7634 8.18615 14.8582 8.08801C15.0473 7.89208 15.0473 7.59768 14.8582 7.40176L7.85513 0.146948C7.666 -0.048983 7.38181 -0.0489829 7.19269 0.146948L0.141847 7.40176C-0.0472829 7.59769 -0.0472829 7.89209 0.141847 8.08801C0.236576 8.18615 0.378539 8.23505 0.520469 8.23505Z" fill="#FFF9F9"/>
</svg>
