<svg width="24" height="24" viewBox="0 0 24 24" fill="none" xmlns="http://www.w3.org/2000/svg">
<path opacity="0.5" d="M23.3917 0.608445C22.5804 -0.202815 21.2653 -0.202815 20.4539 0.608445L12.0001 9.06231L3.5462 0.608445C2.73494 -0.202815 1.41981 -0.202815 0.608445 0.608445C-0.202815 1.41971 -0.202815 2.73483 0.608445 3.5462L9.06231 12.0001L0.608445 20.4539C-0.202815 21.2652 -0.202815 22.5803 0.608445 23.3917C1.0099 23.7931 1.54777 23.998 2.07729 23.998C2.60682 23.998 3.13634 23.7931 3.54614 23.3917L12 14.9378L20.4539 23.3917C20.8553 23.7931 21.3932 23.998 21.9227 23.998C22.4522 23.998 22.9818 23.7931 23.3916 23.3917C24.2028 22.5804 24.2028 21.2653 23.3916 20.4539L14.9377 12.0001L23.3916 3.5462C24.2028 2.73435 24.2029 1.41981 23.3917 0.608445Z" fill="#8C7F75"/>
</svg>
